<svg xmlns="http://www.w3.org/2000/svg" viewBox="0 0 424 257.99"><title>bet-layer2</title><path d="M129.63,257.61C40.83,179.08,75.54,93.79,94.56,60.74" fill="none" stroke="#4e8a6e" stroke-miterlimit="10"/><path d="M48.55.37A89.53,89.53,0,0,0,35.33,16.16,200.79,200.79,0,0,0,9.15,71.71C0,102-10.57,168.23,27.78,238.71c0,0,6.69,13.65,10.11,17.71" fill="none" stroke="#4e8a6e" stroke-miterlimit="10"/><path d="M336.53,60.74c19,33.05,53.73,118.34-35.07,196.87" fill="none" stroke="#4e8a6e" stroke-miterlimit="10"/><path d="M393.2,256.41c3.42-4.05,10.11-17.7,10.11-17.7a224.48,224.48,0,0,0,20.21-50.93" fill="none" stroke="#4e8a6e" stroke-miterlimit="10"/><path d="M382.54.37a89.5,89.5,0,0,1,13.21,15.79A200,200,0,0,1,421.63,70.7" fill="none" stroke="#4e8a6e" stroke-miterlimit="10"/></svg>