<svg xmlns="http://www.w3.org/2000/svg" viewBox="0 0 142.89 142.92"><title>bet-layer1</title><path d="M3554.21,1278l-3.61,7.43.82.4,3.61-7.43Z" transform="translate(-3452.02 -1271.1)" fill="#3b3f4a"/><path d="M3560.11,1281.21l-4.29,7.06.78.47,4.28-7Z" transform="translate(-3452.02 -1271.1)" fill="#3b3f4a"/><path d="M3565.66,1284.9l-4.93,6.63c.25.17.49.35.73.54l4.93-6.63Z" transform="translate(-3452.02 -1271.1)" fill="#3b3f4a"/><path d="M3570.87,1289.11l-5.52,6.14c.23.2.46.4.68.61l5.52-6.14Z" transform="translate(-3452.02 -1271.1)" fill="#3b3f4a"/><path d="M3575.66,1293.78l-6.07,5.6c.22.22.43.44.62.67l6.07-5.6Z" transform="translate(-3452.02 -1271.1)" fill="#3b3f4a"/><path d="M3580,1298.88l-6.58,5,.56.72,6.56-5Z" transform="translate(-3452.02 -1271.1)" fill="#3b3f4a"/><path d="M3583.82,1304.34l-7,4.37.48.77,7-4.37Z" transform="translate(-3452.02 -1271.1)" fill="#3b3f4a"/><path d="M3587.14,1310.15l-7.37,3.7c.13.27.27.54.4.82l7.38-3.71Z" transform="translate(-3452.02 -1271.1)" fill="#3b3f4a"/><path d="M3589.9,1316.27l-7.69,3,.33.85,7.69-3Z" transform="translate(-3452.02 -1271.1)" fill="#3b3f4a"/><path d="M3592.07,1322.62l-7.94,2.25c.09.29.17.58.24.88l8-2.25Z" transform="translate(-3452.02 -1271.1)" fill="#3b3f4a"/><path d="M3593.63,1329.12l-8.11,1.5c.05.3.11.59.15.89l8.13-1.49Z" transform="translate(-3452.02 -1271.1)" fill="#3b3f4a"/><path d="M3594.57,1335.75l-8.22.73c0,.3.06.6.08.91l8.22-.73Z" transform="translate(-3452.02 -1271.1)" fill="#3b3f4a"/><path d="M3586.64,1342.38v.18c0,.24,0,.49,0,.73l8.25.14,0-.91Z" transform="translate(-3452.02 -1271.1)" fill="#3b3f4a"/><path d="M3586.38,1348.3c0,.31-.05.61-.09.91l8.23.8.08-.91Z" transform="translate(-3452.02 -1271.1)" fill="#3b3f4a"/><path d="M3585.57,1354.16c0,.3-.11.6-.16.9l8.11,1.56.16-.9Z" transform="translate(-3452.02 -1271.1)" fill="#3b3f4a"/><path d="M3584.22,1359.93c-.08.29-.16.58-.26.87l7.93,2.32.26-.87Z" transform="translate(-3452.02 -1271.1)" fill="#3b3f4a"/><path d="M3582.33,1365.55c-.11.28-.22.57-.34.85l7.67,3,.35-.84Z" transform="translate(-3452.02 -1271.1)" fill="#3b3f4a"/><path d="M3579.93,1370.94c-.14.27-.28.54-.41.81l7.34,3.76.42-.81Z" transform="translate(-3452.02 -1271.1)" fill="#3b3f4a"/><path d="M3577,1376.1c-.17.26-.33.52-.5.77l7,4.43.48-.77Z" transform="translate(-3452.02 -1271.1)" fill="#3b3f4a"/><path d="M3573.65,1381l-.56.72,6.52,5.06.56-.72Z" transform="translate(-3452.02 -1271.1)" fill="#3b3f4a"/><path d="M3569.83,1385.48c-.2.23-.41.45-.62.67l6,5.65.62-.66Z" transform="translate(-3452.02 -1271.1)" fill="#3b3f4a"/><path d="M3565.63,1389.62c-.22.21-.45.41-.68.61l5.47,6.18.68-.6Z" transform="translate(-3452.02 -1271.1)" fill="#3b3f4a"/><path d="M3561,1393.37c-.24.19-.49.37-.74.54l4.88,6.67.74-.54Z" transform="translate(-3452.02 -1271.1)" fill="#3b3f4a"/><path d="M3556.09,1396.69l-.78.46,4.23,7.1.78-.47Z" transform="translate(-3452.02 -1271.1)" fill="#3b3f4a"/><path d="M3550.91,1399.5l-.83.38,3.55,7.47.82-.39Z" transform="translate(-3452.02 -1271.1)" fill="#3b3f4a"/><path d="M3545.46,1401.81c-.28.12-.57.22-.86.32l2.84,7.77.85-.32Z" transform="translate(-3452.02 -1271.1)" fill="#3b3f4a"/><path d="M3539.84,1403.61c-.29.08-.57.16-.88.23l2.09,8,.88-.23Z" transform="translate(-3452.02 -1271.1)" fill="#3b3f4a"/><path d="M3534,1404.88l-.9.15,1.32,8.16.9-.15Z" transform="translate(-3452.02 -1271.1)" fill="#3b3f4a"/><path d="M3528.18,1405.6l-.9.05.55,8.25.91-.06Z" transform="translate(-3452.02 -1271.1)" fill="#3b3f4a"/><path d="M3521.34,1405.73l-.22,8.27.91,0,.21-8.26Z" transform="translate(-3452.02 -1271.1)" fill="#3b3f4a"/><path d="M3515.46,1405.27l-1,8.21.9.11,1-8.22C3516.06,1405.35,3515.77,1405.31,3515.46,1405.27Z" transform="translate(-3452.02 -1271.1)" fill="#3b3f4a"/><path d="M3509.61,1404.25l-1.74,8.08.9.2,1.74-8.08Z" transform="translate(-3452.02 -1271.1)" fill="#3b3f4a"/><path d="M3503.91,1402.7l-2.49,7.88.87.27,2.49-7.87Z" transform="translate(-3452.02 -1271.1)" fill="#3b3f4a"/><path d="M3498.36,1400.6l-3.23,7.61.84.36,3.23-7.62C3498.92,1400.84,3498.64,1400.73,3498.36,1400.6Z" transform="translate(-3452.02 -1271.1)" fill="#3b3f4a"/><path d="M3493.06,1398l-3.93,7.27.8.44,3.93-7.28C3493.59,1398.3,3493.32,1398.16,3493.06,1398Z" transform="translate(-3452.02 -1271.1)" fill="#3b3f4a"/><path d="M3488,1394.93l-4.6,6.87.76.51,4.59-6.88C3488.52,1395.27,3488.27,1395.1,3488,1394.93Z" transform="translate(-3452.02 -1271.1)" fill="#3b3f4a"/><path d="M3483.27,1391.38l-5.21,6.41.71.57,5.2-6.41C3483.73,1391.76,3483.49,1391.57,3483.27,1391.38Z" transform="translate(-3452.02 -1271.1)" fill="#3b3f4a"/><path d="M3478.87,1387.4l-5.78,5.9.65.64,5.79-5.9C3479.3,1387.83,3479.08,1387.62,3478.87,1387.4Z" transform="translate(-3452.02 -1271.1)" fill="#3b3f4a"/><path d="M3474.87,1383l-6.31,5.33.59.7,6.3-5.34C3475.27,1383.5,3475.06,1383.27,3474.87,1383Z" transform="translate(-3452.02 -1271.1)" fill="#3b3f4a"/><path d="M3471.3,1378.33l-6.77,4.73.52.74,6.77-4.72Z" transform="translate(-3452.02 -1271.1)" fill="#3b3f4a"/><path d="M3468.18,1373.29l-7.19,4.08.45.79,7.19-4.08C3468.47,1373.82,3468.32,1373.56,3468.18,1373.29Z" transform="translate(-3452.02 -1271.1)" fill="#3b3f4a"/><path d="M3465.55,1368l-7.53,3.39.36.83,7.54-3.38C3465.79,1368.55,3465.66,1368.27,3465.55,1368Z" transform="translate(-3452.02 -1271.1)" fill="#3b3f4a"/><path d="M3463.42,1362.49l-7.82,2.66.29.86,7.83-2.66C3463.61,1363.07,3463.52,1362.78,3463.42,1362.49Z" transform="translate(-3452.02 -1271.1)" fill="#3b3f4a"/><path d="M3461.82,1356.77l-8,1.91.21.88,8-1.91C3462,1357.36,3461.88,1357.07,3461.82,1356.77Z" transform="translate(-3452.02 -1271.1)" fill="#3b3f4a"/><path d="M3460.78,1350.94l-8.2,1.15.13.9,8.18-1.15C3460.84,1351.54,3460.8,1351.24,3460.78,1350.94Z" transform="translate(-3452.02 -1271.1)" fill="#3b3f4a"/><path d="M3460.27,1345.05l-8.25.38,0,.91,8.25-.38C3460.28,1345.66,3460.28,1345.36,3460.27,1345.05Z" transform="translate(-3452.02 -1271.1)" fill="#3b3f4a"/><path d="M3452.05,1338.77l0,.91,8.25.38c0-.31,0-.61,0-.91Z" transform="translate(-3452.02 -1271.1)" fill="#3b3f4a"/><path d="M3452.72,1332.1l-.13.9,8.19,1.15c0-.31.07-.61.12-.91Z" transform="translate(-3452.02 -1271.1)" fill="#3b3f4a"/><path d="M3454,1325.52l-.22.89,8,1.91c.07-.3.14-.59.22-.88Z" transform="translate(-3452.02 -1271.1)" fill="#3b3f4a"/><path d="M3455.9,1319.1l-.3.86,7.82,2.66c.11-.29.2-.58.3-.86Z" transform="translate(-3452.02 -1271.1)" fill="#3b3f4a"/><path d="M3458.39,1312.87l-.36.83,7.53,3.39c.12-.28.24-.56.37-.83Z" transform="translate(-3452.02 -1271.1)" fill="#3b3f4a"/><path d="M3461.44,1307l-.45.8,7.19,4.07.45-.79Z" transform="translate(-3452.02 -1271.1)" fill="#3b3f4a"/><path d="M3465.07,1301.29l-.52.74,6.77,4.74c.16-.25.34-.5.52-.75Z" transform="translate(-3452.02 -1271.1)" fill="#3b3f4a"/><path d="M3469.18,1296l-.59.69,6.3,5.33.59-.69Z" transform="translate(-3452.02 -1271.1)" fill="#3b3f4a"/><path d="M3473.76,1291.18l-.66.63,5.77,5.9c.22-.21.44-.43.66-.63Z" transform="translate(-3452.02 -1271.1)" fill="#3b3f4a"/><path d="M3478.78,1286.75l-.71.58,5.2,6.41.71-.58Z" transform="translate(-3452.02 -1271.1)" fill="#3b3f4a"/><path d="M3484.2,1282.81l-.76.5,4.59,6.88.75-.51Z" transform="translate(-3452.02 -1271.1)" fill="#3b3f4a"/><path d="M3490,1279.4l-.81.43,3.93,7.28c.26-.15.53-.3.8-.43Z" transform="translate(-3452.02 -1271.1)" fill="#3b3f4a"/><path d="M3496,1276.54l-.85.36,3.22,7.61.84-.36Z" transform="translate(-3452.02 -1271.1)" fill="#3b3f4a"/><path d="M3502.3,1274.27l-.87.27,2.49,7.88.87-.28Z" transform="translate(-3452.02 -1271.1)" fill="#3b3f4a"/><path d="M3508.78,1272.6l-.9.19,1.74,8.08.9-.2Z" transform="translate(-3452.02 -1271.1)" fill="#3b3f4a"/><path d="M3515.41,1271.54l-.9.11,1,8.2c.31,0,.6-.08.91-.1Z" transform="translate(-3452.02 -1271.1)" fill="#3b3f4a"/><path d="M3522.07,1271.1l-.91,0,.21,8.26c.3,0,.6,0,.91,0Z" transform="translate(-3452.02 -1271.1)" fill="#3b3f4a"/><path d="M3527.84,1271.23l-.55,8.24.9,0,.57-8.23Z" transform="translate(-3452.02 -1271.1)" fill="#3b3f4a"/><path d="M3534.49,1272l-1.32,8.15c.3,0,.61.09.89.15l1.33-8.16Z" transform="translate(-3452.02 -1271.1)" fill="#3b3f4a"/><path d="M3541.06,1273.29l-2.08,8,.88.23,2.08-8Z" transform="translate(-3452.02 -1271.1)" fill="#3b3f4a"/><path d="M3547.47,1275.24l-2.83,7.77c.29.09.58.2.87.31l2.82-7.77Z" transform="translate(-3452.02 -1271.1)" fill="#3b3f4a"/></svg>
