<svg xmlns="http://www.w3.org/2000/svg" xmlns:xlink="http://www.w3.org/1999/xlink" viewBox="0 0 204.86 40.9"><defs><clipPath id="a" transform="translate(-13.87)"><rect y="0.03" width="232.59" height="51.6" fill="none"/></clipPath><clipPath id="b" transform="translate(-13.87)"><path d="M74.36,14.45,72,5.78l-1.13.3,2.32,8.68,1.13-.31" fill="none"/></clipPath><linearGradient id="c" x1="-606.15" y1="370.47" x2="-605.15" y2="370.47" gradientTransform="matrix(223.31, 0, 0, -223.31, 135360.84, 82741.23)" gradientUnits="userSpaceOnUse"><stop offset="0" stop-color="#d9e021"/><stop offset="0.39" stop-color="#662d91"/><stop offset="1" stop-color="#468c6e"/></linearGradient><clipPath id="d" transform="translate(-13.87)"><path d="M54.69,14.34l2.22,5.78L58,19.71l-2.22-5.79-1-2.6-1.09.42,1,2.6Z" fill="none"/></clipPath><linearGradient id="e" x1="-606.15" y1="370.47" x2="-605.15" y2="370.47" gradientTransform="matrix(223.31, 0, 0, -223.31, 135360.62, 82747.25)" xlink:href="#c"/><clipPath id="f" transform="translate(-13.87)"><path d="M82.73,12.48,80.86,3.69l-1.14.24,1.87,8.79c.38-.08.76-.17,1.14-.24" fill="none"/></clipPath><linearGradient id="g" x1="-606.15" y1="370.47" x2="-605.15" y2="370.47" gradientTransform="matrix(223.31, 0, 0, -223.31, 135360.57, 82739.54)" xlink:href="#c"/><clipPath id="h" transform="translate(-13.87)"><path d="M116.29,9h.6V0h-1.17V9h.57" fill="none"/></clipPath><linearGradient id="i" x1="-606.15" y1="370.47" x2="-605.15" y2="370.47" gradientTransform="matrix(223.31, 0, 0, -223.31, 135359.83, 82736.96)" xlink:href="#c"/><clipPath id="j" transform="translate(-13.87)"><path d="M108.28,9.23l-.48-9-1.16.06.47,9,1.17-.06" fill="none"/></clipPath><linearGradient id="k" x1="-606.15" y1="370.47" x2="-605.15" y2="370.47" gradientTransform="matrix(223.31, 0, 0, -223.31, 135359.62, 82737.54)" xlink:href="#c"/><clipPath id="l" transform="translate(-13.87)"><path d="M91.18,10.94l-1.4-8.87-1.16.18L90,11.13l1.15-.19" fill="none"/></clipPath><linearGradient id="m" x1="-606.15" y1="370.47" x2="-605.15" y2="370.47" gradientTransform="matrix(223.31, 0, 0, -223.31, 135360.71, 82737.65)" xlink:href="#c"/><clipPath id="n" transform="translate(-13.87)"><path d="M99.71,9.86,98.77.91,97.61,1l.94,9,1.16-.13" fill="none"/></clipPath><linearGradient id="o" x1="-606.15" y1="370.47" x2="-605.15" y2="370.47" gradientTransform="matrix(223.31, 0, 0, -223.31, 135360.08, 82737.49)" xlink:href="#c"/><clipPath id="p" transform="translate(-13.87)"><path d="M66.11,16.86,63.34,8.32l-1.11.36L65,17.23l1.11-.37" fill="none"/></clipPath><linearGradient id="q" x1="-606.15" y1="370.47" x2="-605.15" y2="370.47" gradientTransform="matrix(223.31, 0, 0, -223.31, 135360.64, 82744.16)" xlink:href="#c"/><clipPath id="r" transform="translate(-13.87)"><path d="M50.05,23,46.4,14.76l-1.07.48L49,23.44,50.05,23" fill="none"/></clipPath><linearGradient id="s" x1="-606.15" y1="370.47" x2="-605.15" y2="370.47" gradientTransform="matrix(223.31, 0, 0, -223.31, 135360.99, 82750.13)" xlink:href="#c"/><clipPath id="t" transform="translate(-13.87)"><path d="M20.3,40.07,15,32.76l-.94.68,5.31,7.32.94-.69" fill="none"/></clipPath><linearGradient id="u" x1="-606.15" y1="370.47" x2="-605.15" y2="370.47" gradientTransform="matrix(223.31, 0, 0, -223.31, 135361.04, 82768.35)" xlink:href="#c"/><clipPath id="v" transform="translate(-13.87)"><path d="M27.39,35.21l-4.91-7.56-1,.63,4.92,7.57,1-.64" fill="none"/></clipPath><linearGradient id="w" x1="-606.15" y1="370.47" x2="-605.15" y2="370.47" gradientTransform="matrix(223.31, 0, 0, -223.31, 135361.2, 82762.9)" xlink:href="#c"/><clipPath id="x" transform="translate(-13.87)"><path d="M42.29,26.65l-4.09-8-1,.53,4.09,8,1-.53" fill="none"/></clipPath><linearGradient id="y" x1="-606.15" y1="370.47" x2="-605.15" y2="370.47" gradientTransform="matrix(223.31, 0, 0, -223.31, 135360.72, 82754.52)" xlink:href="#c"/><clipPath id="z" transform="translate(-13.87)"><path d="M34.72,30.73l-4.36-7.55-.14-.25-1,.59,4.51,7.8,1-.59" fill="none"/></clipPath><linearGradient id="aa" x1="-606.15" y1="370.47" x2="-605.15" y2="370.47" gradientTransform="matrix(223.31, 0, 0, -223.31, 135361.12, 82758.23)" xlink:href="#c"/><clipPath id="ab" transform="translate(-13.87)"><path d="M142.56,11.13,144,2.25l-1.16-.18c-.41,2.57-.88,5.55-1.41,8.87l1.16.19" fill="none"/></clipPath><linearGradient id="ac" x1="-606.15" y1="370.47" x2="-605.15" y2="370.47" gradientTransform="matrix(223.31, 0, 0, -223.31, 135360.27, 82738.4)" xlink:href="#c"/><clipPath id="ad" transform="translate(-13.87)"><path d="M125.48,9.29l.47-9L124.78.23v0c-.14,2.59-.3,5.61-.48,9l1.18.06" fill="none"/></clipPath><linearGradient id="ae" x1="-606.15" y1="370.47" x2="-605.15" y2="370.47" gradientTransform="matrix(223.31, 0, 0, -223.31, 135360.51, 82736.09)" xlink:href="#c"/><clipPath id="af" transform="translate(-13.87)"><path d="M191.34,27.18l4.08-8-1-.53c-1.19,2.32-2.57,5-4.09,8l1,.53" fill="none"/></clipPath><linearGradient id="ag" x1="-606.15" y1="370.47" x2="-605.15" y2="370.47" gradientTransform="matrix(223.31, 0, 0, -223.31, 135361.18, 82753.83)" xlink:href="#c"/><clipPath id="ah" transform="translate(-13.87)"><path d="M206.17,35.85l4.92-7.57-1-.63,0,0-4.9,7.53,1,.64" fill="none"/></clipPath><linearGradient id="ai" x1="-606.15" y1="370.47" x2="-605.15" y2="370.47" gradientTransform="matrix(223.31, 0, 0, -223.31, 135361.55, 82762.4)" xlink:href="#c"/><clipPath id="aj" transform="translate(-13.87)"><path d="M183.6,23.44l3.66-8.2-1.07-.48L182.53,23l1.07.47" fill="none"/></clipPath><linearGradient id="ak" x1="-606.15" y1="370.47" x2="-605.15" y2="370.47" gradientTransform="matrix(223.31, 0, 0, -223.31, 135361.4, 82749.52)" xlink:href="#c"/><clipPath id="al" transform="translate(-13.87)"><path d="M213.23,40.76l5.31-7.32-.94-.68h0l-5.31,7.3.95.7" fill="none"/></clipPath><linearGradient id="am" x1="-606.15" y1="370.47" x2="-605.15" y2="370.47" gradientTransform="matrix(223.31, 0, 0, -223.31, 135361.45, 82767.75)" xlink:href="#c"/><clipPath id="an" transform="translate(-13.87)"><path d="M198.87,31.33l4.48-7.76,0-.05-1-.59v0l-4.5,7.78c.34.19.67.4,1,.6" fill="none"/></clipPath><linearGradient id="ao" x1="-606.15" y1="370.47" x2="-605.15" y2="370.47" gradientTransform="matrix(223.31, 0, 0, -223.31, 135361.03, 82758.46)" xlink:href="#c"/><clipPath id="ap" transform="translate(-13.87)"><path d="M151,12.72l1.87-8.79-1.14-.24h0c-.55,2.54-1.18,5.49-1.87,8.77l1.14.25" fill="none"/></clipPath><linearGradient id="aq" x1="-606.15" y1="370.47" x2="-605.15" y2="370.47" gradientTransform="matrix(223.31, 0, 0, -223.31, 135360.2, 82740.18)" xlink:href="#c"/><clipPath id="ar" transform="translate(-13.87)"><path d="M134,10,135,1,133.82.91h0c-.27,2.59-.59,5.6-.94,8.94L134,10" fill="none"/></clipPath><linearGradient id="as" x1="-606.15" y1="370.47" x2="-605.15" y2="370.47" gradientTransform="matrix(223.31, 0, 0, -223.31, 135360.01, 82737.62)" xlink:href="#c"/><clipPath id="at" transform="translate(-13.87)"><path d="M167.59,17.23l2.75-8.5s0,0,0-.05l-1.11-.36h0c-.81,2.47-1.74,5.34-2.78,8.53l1.12.37" fill="none"/></clipPath><linearGradient id="au" x1="-606.15" y1="370.47" x2="-605.15" y2="370.47" gradientTransform="matrix(223.31, 0, 0, -223.31, 135360.96, 82743.67)" xlink:href="#c"/><clipPath id="av" transform="translate(-13.87)"><path d="M175.68,20.12l3.21-8.38-1.09-.42c-.93,2.43-2,5.25-3.22,8.39l1.1.41" fill="none"/></clipPath><linearGradient id="aw" x1="-606.15" y1="370.47" x2="-605.15" y2="370.47" gradientTransform="matrix(223.31, 0, 0, -223.31, 135360.94, 82746.76)" xlink:href="#c"/><clipPath id="ax" transform="translate(-13.87)"><path d="M159.35,14.76l2.32-8.64a.06.06,0,0,1,0,0h0l-1.13-.3h0v0c-.67,2.51-1.45,5.41-2.32,8.64l1.13.31" fill="none"/></clipPath><linearGradient id="ay" x1="-606.15" y1="370.47" x2="-605.15" y2="370.47" gradientTransform="matrix(223.31, 0, 0, -223.31, 135360.84, 82741.27)" xlink:href="#c"/></defs><title>console-speed</title><g opacity="0.7"><g clip-path="url(#a)"><g clip-path="url(#b)"><rect x="70.81" y="5.74" width="3.66" height="9.05" transform="translate(-14.08 1.64) rotate(-1.29)" fill="url(#c)"/></g><g clip-path="url(#d)"><rect x="53.59" y="11.27" width="4.51" height="8.9" transform="translate(-14.21 1.26) rotate(-1.29)" fill="url(#e)"/></g><g clip-path="url(#f)"><rect x="79.62" y="3.66" width="3.21" height="9.1" transform="translate(-14.03 1.83) rotate(-1.29)" fill="url(#g)"/></g><g clip-path="url(#h)"><rect x="115.62" y="0.01" width="1.37" height="9.04" transform="translate(-13.94 2.62) rotate(-1.29)" fill="url(#i)"/></g><g clip-path="url(#j)"><rect x="106.54" y="0.22" width="1.84" height="9.09" transform="translate(-13.95 2.42) rotate(-1.29)" fill="url(#k)"/></g><g clip-path="url(#l)"><rect x="88.52" y="2.04" width="2.76" height="9.12" transform="translate(-13.99 2.02) rotate(-1.29)" fill="url(#m)"/></g><g clip-path="url(#n)"><rect x="97.5" y="0.89" width="2.31" height="9.12" transform="translate(-13.96 2.22) rotate(-1.29)" fill="url(#o)"/></g><g clip-path="url(#p)"><rect x="62.13" y="8.28" width="4.09" height="8.99" transform="translate(-14.14 1.45) rotate(-1.29)" fill="url(#q)"/></g><g clip-path="url(#r)"><rect x="45.23" y="14.71" width="4.92" height="8.79" transform="translate(-14.28 1.08) rotate(-1.29)" fill="url(#s)"/></g><g clip-path="url(#t)"><rect x="13.96" y="32.69" width="6.44" height="8.14" transform="translate(-14.69 0.4) rotate(-1.29)" fill="url(#u)"/></g><g clip-path="url(#v)"><rect x="21.41" y="27.58" width="6.08" height="8.34" transform="translate(-14.57 0.56) rotate(-1.29)" fill="url(#w)"/></g><g clip-path="url(#x)"><rect x="37.07" y="18.58" width="5.32" height="8.66" transform="translate(-14.37 0.9) rotate(-1.29)" fill="url(#y)"/></g><g clip-path="url(#z)"><rect x="29.12" y="22.87" width="5.7" height="8.51" transform="translate(-14.47 0.73) rotate(-1.29)" fill="url(#aa)"/></g><g clip-path="url(#ab)"><rect x="141.3" y="2.04" width="2.77" height="9.12" transform="translate(-13.98 3.21) rotate(-1.29)" fill="url(#ac)"/></g><g clip-path="url(#ad)"><rect x="124.2" y="0.22" width="1.85" height="9.09" transform="translate(-13.94 2.82) rotate(-1.29)" fill="url(#ae)"/></g><g clip-path="url(#af)"><rect x="190.2" y="18.58" width="5.32" height="8.66" transform="translate(-14.33 4.34) rotate(-1.29)" fill="url(#ag)"/></g><g clip-path="url(#ah)"><rect x="205.1" y="27.58" width="6.08" height="8.34" transform="translate(-14.53 4.69) rotate(-1.29)" fill="url(#ai)"/></g><g clip-path="url(#aj)"><rect x="182.43" y="14.71" width="4.92" height="8.79" transform="translate(-14.25 4.16) rotate(-1.29)" fill="url(#ak)"/></g><g clip-path="url(#al)"><rect x="212.19" y="32.69" width="6.44" height="8.14" transform="translate(-14.64 4.85) rotate(-1.29)" fill="url(#am)"/></g><g clip-path="url(#an)"><rect x="197.77" y="22.87" width="5.7" height="8.51" transform="translate(-14.43 4.52) rotate(-1.29)" fill="url(#ao)"/></g><g clip-path="url(#ap)"><rect x="149.75" y="3.66" width="3.22" height="9.1" transform="translate(-14.01 3.41) rotate(-1.29)" fill="url(#aq)"/></g><g clip-path="url(#ar)"><rect x="132.77" y="0.89" width="2.31" height="9.12" transform="translate(-13.95 3.02) rotate(-1.29)" fill="url(#as)"/></g><g clip-path="url(#at)"><rect x="166.37" y="8.28" width="4.09" height="8.99" transform="translate(-14.11 3.79) rotate(-1.29)" fill="url(#au)"/></g><g clip-path="url(#av)"><rect x="174.48" y="11.27" width="4.51" height="8.9" transform="translate(-14.17 3.98) rotate(-1.29)" fill="url(#aw)"/></g><g clip-path="url(#ax)"><rect x="158.12" y="5.74" width="3.66" height="9.05" transform="translate(-14.06 3.6) rotate(-1.29)" fill="url(#ay)"/></g></g></g></svg>
