<svg xmlns="http://www.w3.org/2000/svg" xmlns:xlink="http://www.w3.org/1999/xlink" viewBox="0 0 252.01 96.83"><defs><clipPath id="a" transform="translate(-1.39 0)"><rect x="77.29" width="100.22" height="60.73" fill="none"/></clipPath><clipPath id="b" transform="translate(-1.39 0)"><polygon points="2.14 96.83 86.57 96.83 81.7 9.65 0 10.52 2.14 96.83" fill="none"/></clipPath><clipPath id="c" transform="translate(-1.39 0)"><polygon points="252.65 96.83 168.21 96.83 173.09 9.65 254.79 10.52 252.65 96.83" fill="none"/></clipPath></defs><title>console-buttons-bottom</title><g opacity="0.7"><g clip-path="url(#a)"><path d="M162.11,59.72a2.1,2.1,0,0,1-.56-.07,136,136,0,0,0-68.24,0,2.24,2.24,0,0,1-.6.09h0A2.27,2.27,0,0,1,90.51,58l-12.2-47.7a2.64,2.64,0,0,1,.23-1.89,2.28,2.28,0,0,1,1.38-1.12l1.51-.39a183.93,183.93,0,0,1,92,0l1.49.4a2.28,2.28,0,0,1,1.39,1.14,2.56,2.56,0,0,1,.23,1.86L164.3,58a2.3,2.3,0,0,1-2.19,1.77" transform="translate(-1.39 0)" fill="#233744"/><path d="M127.4,0V2a182.26,182.26,0,0,1,45.77,5.81l1.48.4a1.33,1.33,0,0,1,.81.68,1.45,1.45,0,0,1,.13,1.08L163.4,57.68a1.34,1.34,0,0,1-1.29,1,1.55,1.55,0,0,1-.39-.06,136.88,136.88,0,0,0-68.66,0,1.45,1.45,0,0,1-.35,0,1.33,1.33,0,0,1-1.3-1L79.21,10a1.58,1.58,0,0,1,.14-1.11,1.29,1.29,0,0,1,.8-.65l1.49-.4A182.24,182.24,0,0,1,127.4,2V0m0,0A183.84,183.84,0,0,0,81.21,5.87l-1.52.4a3.46,3.46,0,0,0-2.28,4.24l12.2,47.7a3.23,3.23,0,0,0,3.1,2.51,3.11,3.11,0,0,0,.79-.1h0a135.28,135.28,0,0,1,67.75,0h0a3.07,3.07,0,0,0,.79.11,3.24,3.24,0,0,0,3.09-2.52l12.2-47.7a3.47,3.47,0,0,0-2.28-4.23l-1.51-.41A184.05,184.05,0,0,0,127.4,0" transform="translate(-1.39 0)" fill="#468c6e"/></g></g><g opacity="0.7"><g clip-path="url(#b)"><path d="M27.44,95.71a19.73,19.73,0,0,1-14.58-6.88l-3.64-4A28,28,0,0,1,2.3,65.9c.06-7,2.63-13.46,7-17.79l1-1A168.35,168.35,0,0,1,42,23,153.87,153.87,0,0,1,67.51,11a1.22,1.22,0,0,1,.46-.09,1.86,1.86,0,0,1,1.71,1.45L83.55,60.52a2,2,0,0,1-1,2.51A112.68,112.68,0,0,0,64,71.83a124.76,124.76,0,0,0-23.8,18.43,18.22,18.22,0,0,1-12.8,5.45Z" transform="translate(-1.39 0)" fill="#233744"/><path d="M68,11.92a.89.89,0,0,1,.79.68L82.67,60.82A.93.93,0,0,1,82.18,62a114.55,114.55,0,0,0-18.59,8.86,125.23,125.23,0,0,0-24,18.55,17.47,17.47,0,0,1-12.24,5.2A18.8,18.8,0,0,1,13.47,88L9.83,84A26.68,26.68,0,0,1,3.22,65.94,24.06,24.06,0,0,1,9.93,49l1-1a166.79,166.79,0,0,1,31.43-24A153.16,153.16,0,0,1,67.82,12a.65.65,0,0,1,.21,0M67.92,9.8a2.23,2.23,0,0,0-.72.13A154.29,154.29,0,0,0,41.52,22,168.49,168.49,0,0,0,9.79,46.25l-1,1C-1,56.85-1.07,75,8.61,85.63l3.64,4a20.62,20.62,0,0,0,15.23,7.2,18.94,18.94,0,0,0,13.38-5.7A123.45,123.45,0,0,1,64.49,72.83a112.76,112.76,0,0,1,18.34-8.75,3.1,3.1,0,0,0,1.6-3.85L70.55,12A2.87,2.87,0,0,0,67.92,9.8" transform="translate(-1.39 0)" fill="#468c6e"/></g></g><g opacity="0.7"><g clip-path="url(#c)"><path d="M227.35,95.71a19.75,19.75,0,0,0,14.58-6.88l3.64-4a27.94,27.94,0,0,0,6.91-18.92c-.06-7-2.62-13.46-7-17.79l-1-1A168.35,168.35,0,0,0,212.84,23a154.25,154.25,0,0,0-25.56-12,1.25,1.25,0,0,0-.46-.09,1.87,1.87,0,0,0-1.72,1.45L171.24,60.52a2,2,0,0,0,1,2.51,112.68,112.68,0,0,1,18.47,8.8,124.7,124.7,0,0,1,23.79,18.43,18.25,18.25,0,0,0,12.8,5.45Z" transform="translate(-1.39 0)" fill="#233744"/><path d="M186.76,11.92a.78.78,0,0,1,.21,0,153.54,153.54,0,0,1,25.43,12,167.11,167.11,0,0,1,31.43,24l1,1a24.1,24.1,0,0,1,6.71,17A26.73,26.73,0,0,1,245,84l-3.64,4a18.82,18.82,0,0,1-13.94,6.57,17.45,17.45,0,0,1-12.23-5.2,125.54,125.54,0,0,0-24-18.55A114.55,114.55,0,0,0,172.61,62a.92.92,0,0,1-.49-1.15L186,12.6a.89.89,0,0,1,.79-.68m.11-2.12A2.87,2.87,0,0,0,184.24,12L170.36,60.23A3.1,3.1,0,0,0,172,64.08a112.47,112.47,0,0,1,18.35,8.75,123.76,123.76,0,0,1,23.63,18.31,18.93,18.93,0,0,0,13.38,5.7,20.64,20.64,0,0,0,15.23-7.2l3.64-4c9.68-10.66,9.61-28.78-.13-38.36l-1.05-1A168.81,168.81,0,0,0,213.27,22,154.29,154.29,0,0,0,187.59,9.93a2.23,2.23,0,0,0-.72-.13" transform="translate(-1.39 0)" fill="#468c6e"/></g></g></svg>