<svg xmlns="http://www.w3.org/2000/svg" xmlns:xlink="http://www.w3.org/1999/xlink" viewBox="0 0 212.35 67.9"><defs><clipPath id="a" transform="translate(0 0)"><rect width="212.35" height="67.91" fill="none"/></clipPath></defs><title>console-buttons-top</title><g opacity="0.7"><g clip-path="url(#a)"><path d="M194.32,67.41a17.44,17.44,0,0,1-11.18-4,120.83,120.83,0,0,0-154-.24,17.52,17.52,0,0,1-22.3-27,155.85,155.85,0,0,1,198.65.32,17.52,17.52,0,0,1-11.2,31" transform="translate(0 0)" fill="#1d2e38"/><path d="M194.32,67.41a17.44,17.44,0,0,1-11.18-4,120.83,120.83,0,0,0-154-.24,17.52,17.52,0,0,1-22.3-27,155.85,155.85,0,0,1,198.65.32,17.52,17.52,0,0,1-11.2,31Z" transform="translate(0 0)" fill="none" stroke="#468c6e" stroke-miterlimit="10"/></g></g></svg>