<svg xmlns="http://www.w3.org/2000/svg" viewBox="0 0 67.77 57.19"><title>error</title><path d="M66.73,45,40.7,3.79A8.1,8.1,0,0,0,27,3.79L1.1,45v.08a7.88,7.88,0,0,0-1.1,4,8.08,8.08,0,0,0,8.05,8H59.71a8.08,8.08,0,0,0,8.05-8A7.55,7.55,0,0,0,66.73,45Zm-6.94,7.42H8.05a3.34,3.34,0,0,1-3.32-3.32,3.51,3.51,0,0,1,.4-1.57l26-41.18a3.34,3.34,0,0,1,5.68,0l26,41.1a2.82,2.82,0,0,1,.4,1.65A3.34,3.34,0,0,1,59.79,52.46Z" fill="#233744"/><path d="M33.92,41.81a3,3,0,0,0-2.29.94A3.17,3.17,0,0,0,30.69,45a2.79,2.79,0,0,0,1,2.37,3.45,3.45,0,0,0,4.58,0A3,3,0,0,0,37.23,45a3.17,3.17,0,0,0-.94-2.29A3.48,3.48,0,0,0,33.92,41.81Z" fill="#a2c4db"/><path d="M34.08,15.38a3.23,3.23,0,0,0-2.53,1,4,4,0,0,0-.94,2.84c0,.86.08,2.36.15,4.34L31.47,34a10.16,10.16,0,0,0,.64,3,1.74,1.74,0,0,0,1.65,1,1.65,1.65,0,0,0,1.66-1,8.66,8.66,0,0,0,.63-2.92l1-10.73c.08-1,.16-2,.16-2.92a8.89,8.89,0,0,0-.63-3.71A2.48,2.48,0,0,0,34.08,15.38Z" fill="#a2c4db"/></svg>