<svg xmlns="http://www.w3.org/2000/svg" viewBox="0 0 169.04 79.36"><title>nrgaming</title><g opacity="0.65"><path d="M33.27,3.36A20.42,20.42,0,0,1,36.6,3.1a4.64,4.64,0,0,1,3.51,1.11A3,3,0,0,1,40.75,7,4.74,4.74,0,0,1,39.2,9.81a6.5,6.5,0,0,1-4.32,1.45,5.5,5.5,0,0,1-1.35-.11l-1,5.31H30.83Zm.52,6.39a5.31,5.31,0,0,0,1.39.14c2.06,0,3.51-1,3.85-2.83s-.76-2.6-2.64-2.6a7.44,7.44,0,0,0-1.64.14Z" transform="translate(0 -2.49)" fill="#fff"/><path d="M50.25,11.62a5.83,5.83,0,0,1-5.68,5.05c-2.58,0-4.21-1.89-3.65-4.89a5.83,5.83,0,0,1,5.66-5.06C49.31,6.72,50.79,8.71,50.25,11.62Zm-7.57.1c-.39,2.08.52,3.65,2.21,3.65s3.18-1.55,3.58-3.69C48.77,10.07,48.34,8,46.3,8S43,9.91,42.68,11.72Z" transform="translate(0 -2.49)" fill="#fff"/><path d="M53.86,6.94l.35,4.84c.08,1.06.15,2,.14,3h.06c.4-1,.9-2,1.41-3l2.46-4.86h1.45l.59,4.76c.14,1.14.23,2.14.26,3.1h.06A33.21,33.21,0,0,1,62,11.72l2.24-4.78H65.9l-4.84,9.52H59.49l-.61-4.55a31.24,31.24,0,0,1-.26-3.12h0c-.45,1.14-.93,2.12-1.45,3.14l-2.38,4.53H53.18L52.09,6.94Z" transform="translate(0 -2.49)" fill="#fff"/><path d="M67.46,12c-.4,2.34.91,3.31,2.64,3.31a6.85,6.85,0,0,0,2.73-.5l.06,1.24a8.44,8.44,0,0,1-3.27.59c-2.93,0-4.32-1.92-3.78-4.8s2.64-5.13,5.42-5.13c3.1,0,3.42,2.74,3.09,4.49-.07.35-.16.62-.21.8Zm5.3-1.24C73,9.67,72.83,8,70.89,8c-1.75,0-2.82,1.61-3.18,2.81Z" transform="translate(0 -2.49)" fill="#fff"/><path d="M76.74,9.91c.21-1.12.37-2.09.47-3h1.52l-.29,1.87h.07a3.64,3.64,0,0,1,3-2.09,1.75,1.75,0,0,1,.48.06l-.31,1.63a2.4,2.4,0,0,0-.58-.06,3.09,3.09,0,0,0-2.73,2.23,6.44,6.44,0,0,0-.23.8l-1,5.08H75.51Z" transform="translate(0 -2.49)" fill="#fff"/><path d="M83.54,12c-.4,2.34.92,3.31,2.65,3.31a6.83,6.83,0,0,0,2.72-.5L89,16.06a8.54,8.54,0,0,1-3.28.59c-2.93,0-4.32-1.92-3.78-4.8s2.65-5.13,5.42-5.13c3.1,0,3.42,2.74,3.09,4.49-.07.35-.16.62-.21.8Zm5.3-1.24C89.07,9.67,88.91,8,87,8c-1.75,0-2.82,1.61-3.18,2.81Z" transform="translate(0 -2.49)" fill="#fff"/><path d="M102.42,2.49,100.27,14c-.16.84-.32,1.81-.38,2.46H98.34l.23-1.66h0a4.36,4.36,0,0,1-3.59,1.87c-2.3,0-3.71-1.94-3.17-4.84.57-3.16,2.9-5.11,5.22-5.11a2.57,2.57,0,0,1,2.6,1.46h0l1.06-5.69Zm-3.28,8.32a3,3,0,0,0,0-.73,2,2,0,0,0-2.12-2c-1.79,0-3.14,1.57-3.53,3.68-.36,1.92.28,3.52,2.15,3.52a3.4,3.4,0,0,0,3.14-2.82Z" transform="translate(0 -2.49)" fill="#fff"/><path d="M109.35,3.38a17.19,17.19,0,0,1,3.18-.28c1.71,0,2.75.3,3.45,1a2.34,2.34,0,0,1,.67,2.34,4,4,0,0,1-2.79,2.91v0A2.73,2.73,0,0,1,116,12.68a4.39,4.39,0,0,1-1.62,2.65,7.62,7.62,0,0,1-4.81,1.24,19.2,19.2,0,0,1-2.62-.15Zm-.49,11.78a8.74,8.74,0,0,0,1.42.08c1.77,0,3.52-.65,3.88-2.58s-1.07-2.56-2.94-2.56h-1.41Zm1.19-6.35h1.55c1.81,0,3.05-1,3.29-2.23.29-1.55-.78-2.16-2.51-2.16a7.42,7.42,0,0,0-1.53.12Z" transform="translate(0 -2.49)" fill="#fff"/><path d="M120,6.94l1,5.62c.1.63.2,1.38.25,1.95h0c.28-.57.62-1.3,1-2l2.93-5.58h1.83l-3.86,6.78c-1.85,3.27-3,4.94-4.38,6a5.73,5.73,0,0,1-2.33,1.12l-.16-1.45A5.85,5.85,0,0,0,118,18.5a6.84,6.84,0,0,0,1.82-1.93,1.44,1.44,0,0,0,.21-.41,1.56,1.56,0,0,0,0-.45l-1.88-8.77Z" transform="translate(0 -2.49)" fill="#fff"/></g><path d="M169,27.59H11.37L.07,9.93,0,62.08H17.66L27.77,76.82V62.08H169Z" transform="translate(0 -2.49)" fill="#fff"/><polygon points="0 61.74 16.94 61.74 29.2 79.36 29.2 61.74 169.04 61.74 169.04 59.22 26.58 59.22 26.25 68.86 19.42 59.22 0 59.22 0 61.74" opacity="0.28" style="isolation:isolate"/><polygon points="69.52 44.73 73.69 44.73 71.61 38.51 69.52 44.73" fill="#db3e3f"/><path d="M26.33,36H25.14l0,7.09h1.15c2.41,0,5.14-.47,5.14-3.56S28.74,36,26.33,36" transform="translate(0 -2.49)" fill="#db3e3f"/><path d="M169,27.59H11.37L.07,9.93,0,62.08H17.66L27.77,76.82V62.08H169ZM32.12,59.31l-6.91-9.14.11,18.27-4.17-6.36L10.43,45.53l-.07,13.78H2.91L3,27.59V20.72L17.62,43.48l0-7.26V30.35H28.74c5.64,0,9.92,2.67,9.92,8.74,0,3.92-2.19,7.31-6.25,8l9.24,12.2Zm19.6-3.42c-6.55,0-11.11-4.5-11.11-11,0-6.69,4.53-11.18,11.29-11.18A10,10,0,0,1,59.74,37a10.06,10.06,0,0,1,1.58,2.52L55.75,42.4,55.6,42a4.09,4.09,0,0,0-3.92-2.88c-2.37,0-4.74,2-4.74,5.87s2.44,5.79,4.82,5.79c2,0,3.3-1,3.66-2.59l-4.13,0,0-5H62.47v.44c0,2.87-.25,5.5-2.12,8.12a10.1,10.1,0,0,1-8.63,4.14m50.21-.65-1.3-10.32L96.32,55.24H93.66L89.52,44.92,88,55.24H76.18l-1.3-3.45H68.34L67,55.24H60.49l8.06-20.86h6.3l7.37,19.5,3.31-19.5h5.79l3.77,9.89L99,34.38h5.87L108,55.21Zm13.45,0H109.3V34.38h6.08Zm23.38,0h-5.87L124,43.81V55.24H117.9V34.38h5.82l8.92,11.44V34.38h6.08Zm23.3-11.58c0,2.88-.25,5.5-2.12,8.13a10.12,10.12,0,0,1-8.63,4.1c-6.55,0-11.11-4.5-11.11-11,0-6.69,4.53-11.18,11.29-11.18a10,10,0,0,1,7.84,3.3A11.52,11.52,0,0,1,161,39.56l-5.61,2.84-.15-.43a4.09,4.09,0,0,0-3.92-2.88c-2.37,0-4.74,2-4.74,5.87s2.44,5.79,4.85,5.79c2,0,3.31-1,3.67-2.59l-4.14,0,0-5H162.1Z" transform="translate(0 -2.49)" fill="#db3e3f"/><path d="M36.87,70.17v.9h1.58v1.19H36.87v.93h1.65v1.19H35.46V69h3.06v1.19l-1.65,0Z" transform="translate(0 -2.49)" fill="#fff"/><path d="M45.93,69h1.4l2.55,3.31h0V69.05h1.41v5.36H49.88l-2.55-3.27h0v3.27h-1.4Z" transform="translate(0 -2.49)" fill="#fff"/><path d="M60.1,70.17v.9h1.58v1.19H60.1v.93h1.65v1.19h-3V69h3v1.19l-1.65,0Z" transform="translate(0 -2.49)" fill="#fff"/><path d="M73.62,74.34H71.9l-1.3-2h0v2H69.2V69h2c1.08,0,1.87.51,1.87,1.62a1.48,1.48,0,0,1-1.19,1.51Zm-3.05-3h.14c.43,0,.93-.07.93-.65s-.5-.64-.93-.64h-.14Z" transform="translate(0 -2.49)" fill="#fff"/><path d="M85.85,71.36a3.41,3.41,0,0,1-.54,2.12,2.51,2.51,0,0,1-2.19,1A2.69,2.69,0,0,1,80.28,72v-.25a2.74,2.74,0,0,1,2.91-2.88,2.46,2.46,0,0,1,2.41,1.51l-1.3.57a1.19,1.19,0,0,0-1.15-.86,1.7,1.7,0,0,0,0,3.35,1,1,0,0,0,1.11-.9v0H83.19V71.36Z" transform="translate(0 -2.49)" fill="#fff"/><path d="M94.41,73.41l-.39.93H92.54l2-5.36H96.1l2,5.36H96.6l-.36-.93Zm1-2.77h0l-.57,1.69H96Z" transform="translate(0 -2.49)" fill="#fff"/><path d="M105.7,69h1.37l1.12,2.84L109.34,69h1.4l.79,5.36h-1.4l-.4-3.1h0l-1.26,3.1h-.57l-1.22-3.1h0l-.44,3.1h-1.4Z" transform="translate(0 -2.49)" fill="#fff"/><path d="M120.05,74.34h-1.4V69h1.4Z" transform="translate(0 -2.49)" fill="#fff"/><path d="M127.5,69h1.4l2.56,3.27h0V69h1.4v5.36h-1.4L128.9,71.1h0v3.28h-1.4Z" transform="translate(0 -2.49)" fill="#fff"/><path d="M145.63,71.36a3.48,3.48,0,0,1-.54,2.12,2.55,2.55,0,0,1-2.23,1A2.72,2.72,0,0,1,140,72v-.25a2.74,2.74,0,0,1,2.91-2.88,2.46,2.46,0,0,1,2.41,1.51l-1.33.57a1.2,1.2,0,0,0-1.15-.86,1.7,1.7,0,0,0,0,3.35,1,1,0,0,0,1.12-.9v0h-1.12V71.36Z" transform="translate(0 -2.49)" fill="#fff"/></svg>