<?xml version="1.0" encoding="utf-8"?>
<!-- Generator: Adobe Illustrator 23.0.0, SVG Export Plug-In . SVG Version: 6.00 Build 0)  -->
<svg version="1.1" id="Layer_1" xmlns="http://www.w3.org/2000/svg" xmlns:xlink="http://www.w3.org/1999/xlink" x="0px" y="0px"
	 viewBox="0 0 275.6 163" style="enable-background:new 0 0 275.6 163;" xml:space="preserve">
<style type="text/css">
	.st0{fill:none;stroke:#4E8A6E;stroke-miterlimit:10;}
	.st1{fill:none;stroke:#468C6E;stroke-linecap:round;stroke-miterlimit:10;}
	.st2{fill:none;}
	.st3{display:none;fill:none;stroke:#468C6E;stroke-linecap:round;stroke-miterlimit:10;}
</style>
<title>1-without-delete-button</title>
<path class="st0" d="M207.5,29.5c0,0,54.8,69.7-16.2,132.5"/>
<path class="st0" d="M66.5,29.5c0,0-54.8,69.7,16.2,132.5"/>
<path class="st1" d="M3.2,116"/>
<path class="st1" d="M13.7,25.3c5-9,11.1-17.3,18.1-24.8"/>
<path class="st1" d="M21.8,162.5C11.5,148.3,4.3,132.1,0.5,115"/>
<path class="st2" d="M264.9,37.7c12.5,29.6,13.5,63,2.5,93.3"/>
<path class="st3" d="M240.8,0.5c10.4,11.2,18.5,23.8,24.1,37.2"/>
<path class="st1" d="M268.8,127c-4,12.4-10,24.4-18,35.5"/>
<path class="st2" d="M271,55.7c6,23.4,5.4,48.2-2.2,71.4"/>
<path class="st2" d="M268.8,48.1c0.8,2.5,1.5,5,2.2,7.5"/>
<path class="st2" d="M268,45.7c0.3,0.8,0.5,1.6,0.8,2.4"/>
<path class="st1" d="M240.8,0.5c12.4,13.4,21.5,28.8,27.2,45.2"/>
</svg>
