<?xml version="1.0" encoding="utf-8"?>
<!-- Generator: Adobe Illustrator 23.0.0, SVG Export Plug-In . SVG Version: 6.00 Build 0)  -->
<svg version="1.1" id="Layer_1" xmlns="http://www.w3.org/2000/svg" xmlns:xlink="http://www.w3.org/1999/xlink" x="0px" y="0px"
	 viewBox="0 0 275.6 163" style="enable-background:new 0 0 275.6 163;" xml:space="preserve">
<title>2-without-delete-button</title>
<path style="fill:none;stroke:#4E8A6E;stroke-miterlimit:10;" d="M207.5,29.5c0,0,54.8,69.7-16.2,132.5"/>
<path style="fill:none;stroke:#4E8A6E;stroke-miterlimit:10;" d="M66.5,29.5c0,0-54.8,69.7,16.2,132.5"/>
<path style="fill:none;stroke:#468C6E;stroke-linecap:round;stroke-miterlimit:10;" d="M3.2,116"/>
<path style="fill:none;stroke:#468C6E;stroke-linecap:round;stroke-miterlimit:10;" d="M268.8,127c-4,12.4-10,24.4-18,35.5"/>
<path style="fill:none;" d="M271,55.7c6,23.4,5.4,48.2-2.2,71.4"/>
<path style="fill:none;" d="M268.8,48.1c0.8,2.5,1.5,5,2.2,7.5"/>
<path style="fill:none;" d="M268,45.7c0.3,0.8,0.5,1.6,0.8,2.4"/>
<path style="fill:none;stroke:#468C6E;stroke-linecap:round;stroke-miterlimit:10;" d="M240.8,0.5c12.4,13.4,21.5,28.8,27.2,45.2"/>
<path style="fill:none;stroke:#468C6E;stroke-linecap:round;stroke-miterlimit:10;" d="M13.7,25.3c5-9,11.1-17.3,18.1-24.8"/>
<path style="fill:none;" d="M12.1,146.9c-5.3-10-9.2-20.8-11.6-31.9"/>
<path style="fill:none;stroke:#468C6E;stroke-linecap:round;stroke-miterlimit:10;" d="M21.8,162.5c-3.6-5-6.9-10.2-9.7-15.6"/>
</svg>
