<svg xmlns="http://www.w3.org/2000/svg" xmlns:xlink="http://www.w3.org/1999/xlink" viewBox="0 0 232.92 51.78"><defs><clipPath id="a"><rect x="0.17" y="0.03" width="232.59" height="51.6" fill="none"/></clipPath><clipPath id="b"><path d="M74.53,14.45,72.21,5.78l-1.13.3,2.32,8.68,1.13-.31" fill="none"/></clipPath><linearGradient id="c" x1="-605.98" y1="370.47" x2="-604.98" y2="370.47" gradientTransform="matrix(223.31, 0, 0, -223.31, 135323.29, 82741.23)" gradientUnits="userSpaceOnUse"><stop offset="0" stop-color="#d9e021"/><stop offset="0.39" stop-color="#662d91"/><stop offset="1" stop-color="#468c6e"/></linearGradient><clipPath id="d"><path d="M54.86,14.34l2.22,5.78,1.09-.41L56,13.92l-1-2.6-1.09.42,1,2.6Z" fill="none"/></clipPath><linearGradient id="e" x1="-605.98" y1="370.47" x2="-604.98" y2="370.47" gradientTransform="matrix(223.31, 0, 0, -223.31, 135323.07, 82747.25)" xlink:href="#c"/><clipPath id="f"><path d="M82.9,12.48,81,3.69l-1.14.24,1.86,8.79c.38-.08.76-.17,1.15-.24" fill="none"/></clipPath><linearGradient id="g" x1="-605.98" y1="370.47" x2="-604.98" y2="370.47" gradientTransform="matrix(223.31, 0, 0, -223.31, 135323.03, 82739.54)" xlink:href="#c"/><clipPath id="h"><path d="M116.46,9h.6V0h-1.17V9h.57" fill="none"/></clipPath><linearGradient id="i" x1="-605.98" y1="370.47" x2="-604.98" y2="370.47" gradientTransform="matrix(223.31, 0, 0, -223.31, 135322.29, 82736.96)" xlink:href="#c"/><clipPath id="j"><path d="M108.45,9.23l-.48-9-1.16.06.47,9,1.17-.06" fill="none"/></clipPath><linearGradient id="k" x1="-605.98" y1="370.47" x2="-604.98" y2="370.47" gradientTransform="matrix(223.31, 0, 0, -223.31, 135322.07, 82737.54)" xlink:href="#c"/><clipPath id="l"><path d="M91.35,10.94,90,2.07l-1.16.18,1.41,8.88,1.15-.19" fill="none"/></clipPath><linearGradient id="m" x1="-605.98" y1="370.47" x2="-604.98" y2="370.47" gradientTransform="matrix(223.31, 0, 0, -223.31, 135323.17, 82737.65)" xlink:href="#c"/><clipPath id="n"><path d="M99.88,9.86,98.94.91,97.77,1l1,9,1.16-.13" fill="none"/></clipPath><linearGradient id="o" x1="-605.98" y1="370.47" x2="-604.98" y2="370.47" gradientTransform="matrix(223.31, 0, 0, -223.31, 135322.54, 82737.49)" xlink:href="#c"/><clipPath id="p"><path d="M66.28,16.86,63.51,8.32l-1.12.36,2.78,8.55,1.11-.37" fill="none"/></clipPath><linearGradient id="q" x1="-605.98" y1="370.47" x2="-604.98" y2="370.47" gradientTransform="matrix(223.31, 0, 0, -223.31, 135323.09, 82744.16)" xlink:href="#c"/><clipPath id="r"><path d="M50.22,23l-3.65-8.21-1.07.48,3.65,8.2L50.22,23" fill="none"/></clipPath><linearGradient id="s" x1="-605.98" y1="370.47" x2="-604.98" y2="370.47" gradientTransform="matrix(223.31, 0, 0, -223.31, 135323.45, 82750.13)" xlink:href="#c"/><clipPath id="t"><path d="M20.47,40.07l-5.31-7.31-.95.68,5.32,7.32.94-.69" fill="none"/></clipPath><linearGradient id="u" x1="-605.98" y1="370.47" x2="-604.98" y2="370.47" gradientTransform="matrix(223.31, 0, 0, -223.31, 135323.5, 82768.35)" xlink:href="#c"/><clipPath id="v"><path d="M13.65,45.28,8.17,38.52,8,38.25,7,39l5.7,7,.91-.74" fill="none"/></clipPath><linearGradient id="w" x1="-605.98" y1="370.47" x2="-604.98" y2="370.47" gradientTransform="matrix(223.31, 0, 0, -223.31, 135324.04, 82773.03)" xlink:href="#c"/><clipPath id="x"><path d="M27.56,35.21l-4.91-7.56-1,.63,4.91,7.57,1-.64" fill="none"/></clipPath><linearGradient id="y" x1="-605.98" y1="370.47" x2="-604.98" y2="370.47" gradientTransform="matrix(223.31, 0, 0, -223.31, 135323.65, 82762.9)" xlink:href="#c"/><clipPath id="z"><path d="M42.46,26.65l-4.09-8-1,.53,4.08,8,1.05-.53" fill="none"/></clipPath><linearGradient id="aa" x1="-605.98" y1="370.47" x2="-604.98" y2="370.47" gradientTransform="matrix(223.31, 0, 0, -223.31, 135323.18, 82754.52)" xlink:href="#c"/><clipPath id="ab"><path d="M34.89,30.73l-4.36-7.55-.14-.25-1,.59,4.51,7.8,1-.59" fill="none"/></clipPath><linearGradient id="ac" x1="-605.98" y1="370.47" x2="-604.98" y2="370.47" gradientTransform="matrix(223.31, 0, 0, -223.31, 135323.58, 82758.23)" xlink:href="#c"/><clipPath id="ad"><path d="M142.73,11.13l1.4-8.88L143,2.07c-.41,2.57-.88,5.55-1.41,8.87l1.16.19" fill="none"/></clipPath><linearGradient id="ae" x1="-605.98" y1="370.47" x2="-604.98" y2="370.47" gradientTransform="matrix(223.31, 0, 0, -223.31, 135322.72, 82738.4)" xlink:href="#c"/><clipPath id="af"><path d="M125.64,9.29l.48-9L125,.23v0c-.14,2.59-.3,5.61-.48,9l1.17.06" fill="none"/></clipPath><linearGradient id="ag" x1="-605.98" y1="370.47" x2="-604.98" y2="370.47" gradientTransform="matrix(223.31, 0, 0, -223.31, 135322.96, 82736.09)" xlink:href="#c"/><clipPath id="ah"><path d="M191.51,27.18l4.08-8-1-.53-4.09,8,1,.53" fill="none"/></clipPath><linearGradient id="ai" x1="-605.98" y1="370.47" x2="-604.98" y2="370.47" gradientTransform="matrix(223.31, 0, 0, -223.31, 135323.64, 82753.83)" xlink:href="#c"/><clipPath id="aj"><path d="M206.34,35.85l4.92-7.57-1-.63,0,0-4.9,7.53,1,.64" fill="none"/></clipPath><linearGradient id="ak" x1="-605.98" y1="370.47" x2="-604.98" y2="370.47" gradientTransform="matrix(223.31, 0, 0, -223.31, 135324.01, 82762.4)" xlink:href="#c"/><clipPath id="al"><path d="M183.77,23.44l3.66-8.2-1.07-.48L182.7,23l1.07.47" fill="none"/></clipPath><linearGradient id="am" x1="-605.98" y1="370.47" x2="-604.98" y2="370.47" gradientTransform="matrix(223.31, 0, 0, -223.31, 135323.86, 82749.52)" xlink:href="#c"/><clipPath id="an"><path d="M213.4,40.76l5.31-7.32-.94-.68h0l-5.31,7.3,1,.7" fill="none"/></clipPath><linearGradient id="ao" x1="-605.98" y1="370.47" x2="-604.98" y2="370.47" gradientTransform="matrix(223.31, 0, 0, -223.31, 135323.91, 82767.75)" xlink:href="#c"/><clipPath id="ap"><path d="M226.7,51.62l6.05-6.71v0l-.86-.78-6.07,6.73.88.78" fill="none"/></clipPath><linearGradient id="aq" x1="-605.98" y1="370.47" x2="-604.98" y2="370.47" gradientTransform="matrix(223.31, 0, 0, -223.31, 135323.83, 82779.41)" xlink:href="#c"/><clipPath id="ar"><path d="M220.19,46l5.69-7-.91-.73h0l-5.7,7,.92.74" fill="none"/></clipPath><linearGradient id="as" x1="-605.98" y1="370.47" x2="-604.98" y2="370.47" gradientTransform="matrix(223.31, 0, 0, -223.31, 135323.98, 82773.22)" xlink:href="#c"/><clipPath id="at"><path d="M199,31.33l4.47-7.76,0-.05-1-.59v0L198,30.73c.34.19.67.4,1,.6" fill="none"/></clipPath><linearGradient id="au" x1="-605.98" y1="370.47" x2="-604.98" y2="370.47" gradientTransform="matrix(223.31, 0, 0, -223.31, 135323.49, 82758.46)" xlink:href="#c"/><clipPath id="av"><path d="M151.17,12.72,153,3.93l-1.14-.24h0c-.55,2.54-1.18,5.49-1.88,8.77l1.15.25" fill="none"/></clipPath><linearGradient id="aw" x1="-605.98" y1="370.47" x2="-604.98" y2="370.47" gradientTransform="matrix(223.31, 0, 0, -223.31, 135322.65, 82740.18)" xlink:href="#c"/><clipPath id="ax"><path d="M7.1,50.85,1,44.11l-.87.78,6.06,6.73c.28-.26.58-.51.87-.77" fill="none"/></clipPath><linearGradient id="ay" x1="-605.98" y1="370.47" x2="-604.98" y2="370.47" gradientTransform="matrix(223.31, 0, 0, -223.31, 135323.94, 82779.13)" xlink:href="#c"/><clipPath id="az"><path d="M134.21,10,135.15,1,134,.91h0c-.28,2.59-.59,5.6-1,8.94l1.17.13" fill="none"/></clipPath><linearGradient id="ba" x1="-605.98" y1="370.47" x2="-604.98" y2="370.47" gradientTransform="matrix(223.31, 0, 0, -223.31, 135322.47, 82737.62)" xlink:href="#c"/><clipPath id="bb"><path d="M167.75,17.23l2.76-8.5s0,0,0-.05l-1.11-.36h0c-.81,2.47-1.74,5.34-2.78,8.53l1.11.37" fill="none"/></clipPath><linearGradient id="bc" x1="-605.98" y1="370.47" x2="-604.98" y2="370.47" gradientTransform="matrix(223.31, 0, 0, -223.31, 135323.42, 82743.67)" xlink:href="#c"/><clipPath id="bd"><path d="M175.84,20.12l3.22-8.38L178,11.32c-.93,2.43-2,5.25-3.22,8.39l1.09.41" fill="none"/></clipPath><linearGradient id="be" x1="-605.98" y1="370.47" x2="-604.98" y2="370.47" gradientTransform="matrix(223.31, 0, 0, -223.31, 135323.4, 82746.76)" xlink:href="#c"/><clipPath id="bf"><path d="M159.52,14.76l2.32-8.64a.06.06,0,0,1,0,0h0l-1.13-.3h0v0c-.67,2.51-1.45,5.41-2.32,8.64l1.13.31" fill="none"/></clipPath><linearGradient id="bg" x1="-605.98" y1="370.47" x2="-604.98" y2="370.47" gradientTransform="matrix(223.31, 0, 0, -223.31, 135323.3, 82741.27)" xlink:href="#c"/></defs><title>console-speed</title><g opacity="0.7"><g clip-path="url(#a)"><g clip-path="url(#b)"><rect x="70.98" y="5.74" width="3.66" height="9.05" transform="translate(-0.21 1.64) rotate(-1.29)" fill="url(#c)"/></g><g clip-path="url(#d)"><rect x="53.76" y="11.27" width="4.51" height="8.9" transform="translate(-0.34 1.26) rotate(-1.29)" fill="url(#e)"/></g><g clip-path="url(#f)"><rect x="79.78" y="3.66" width="3.21" height="9.1" transform="translate(-0.16 1.83) rotate(-1.29)" fill="url(#g)"/></g><g clip-path="url(#h)"><rect x="115.78" y="0.01" width="1.37" height="9.04" transform="translate(-0.07 2.62) rotate(-1.29)" fill="url(#i)"/></g><g clip-path="url(#j)"><rect x="106.71" y="0.22" width="1.84" height="9.09" transform="translate(-0.08 2.42) rotate(-1.29)" fill="url(#k)"/></g><g clip-path="url(#l)"><rect x="88.69" y="2.04" width="2.76" height="9.12" transform="translate(-0.13 2.03) rotate(-1.29)" fill="url(#m)"/></g><g clip-path="url(#n)"><rect x="97.67" y="0.89" width="2.31" height="9.12" transform="translate(-0.1 2.23) rotate(-1.29)" fill="url(#o)"/></g><g clip-path="url(#p)"><rect x="62.3" y="8.28" width="4.09" height="8.99" transform="translate(-0.27 1.45) rotate(-1.29)" fill="url(#q)"/></g><g clip-path="url(#r)"><rect x="45.4" y="14.71" width="4.92" height="8.79" transform="translate(-0.42 1.08) rotate(-1.29)" fill="url(#s)"/></g><g clip-path="url(#t)"><rect x="14.13" y="32.69" width="6.44" height="8.14" transform="translate(-0.82 0.4) rotate(-1.29)" fill="url(#u)"/></g><g clip-path="url(#v)"><rect x="6.96" y="38.18" width="6.78" height="7.91" transform="translate(-0.95 0.24) rotate(-1.29)" fill="url(#w)"/></g><g clip-path="url(#x)"><rect x="21.58" y="27.58" width="6.08" height="8.34" transform="translate(-0.71 0.56) rotate(-1.29)" fill="url(#y)"/></g><g clip-path="url(#z)"><rect x="37.24" y="18.58" width="5.32" height="8.66" transform="translate(-0.51 0.9) rotate(-1.29)" fill="url(#aa)"/></g><g clip-path="url(#ab)"><rect x="29.29" y="22.87" width="5.7" height="8.51" transform="translate(-0.6 0.73) rotate(-1.29)" fill="url(#ac)"/></g><g clip-path="url(#ad)"><rect x="141.47" y="2.04" width="2.77" height="9.12" transform="translate(-0.11 3.22) rotate(-1.29)" fill="url(#ae)"/></g><g clip-path="url(#af)"><rect x="124.37" y="0.22" width="1.85" height="9.09" transform="translate(-0.08 2.82) rotate(-1.29)" fill="url(#ag)"/></g><g clip-path="url(#ah)"><rect x="190.37" y="18.58" width="5.32" height="8.66" transform="translate(-0.47 4.35) rotate(-1.29)" fill="url(#ai)"/></g><g clip-path="url(#aj)"><rect x="205.27" y="27.58" width="6.08" height="8.34" transform="translate(-0.66 4.69) rotate(-1.29)" fill="url(#ak)"/></g><g clip-path="url(#al)"><rect x="182.6" y="14.71" width="4.92" height="8.79" transform="translate(-0.38 4.17) rotate(-1.29)" fill="url(#am)"/></g><g clip-path="url(#an)"><rect x="212.36" y="32.69" width="6.44" height="8.14" transform="translate(-0.77 4.86) rotate(-1.29)" fill="url(#ao)"/></g><g clip-path="url(#ap)"><rect x="225.74" y="44.04" width="7.1" height="7.66" transform="translate(-1.02 5.17) rotate(-1.29)" fill="url(#aq)"/></g><g clip-path="url(#ar)"><rect x="219.19" y="38.18" width="6.78" height="7.91" transform="translate(-0.89 5.02) rotate(-1.29)" fill="url(#as)"/></g><g clip-path="url(#at)"><rect x="197.94" y="22.87" width="5.7" height="8.51" transform="translate(-0.56 4.52) rotate(-1.29)" fill="url(#au)"/></g><g clip-path="url(#av)"><rect x="149.92" y="3.66" width="3.22" height="9.1" transform="translate(-0.15 3.41) rotate(-1.29)" fill="url(#aw)"/></g><g clip-path="url(#ax)"><rect x="0.09" y="44.04" width="7.1" height="7.66" transform="translate(-1.08 0.09) rotate(-1.29)" fill="url(#ay)"/></g><g clip-path="url(#az)"><rect x="132.94" y="0.89" width="2.31" height="9.12" transform="translate(-0.09 3.02) rotate(-1.29)" fill="url(#ba)"/></g><g clip-path="url(#bb)"><rect x="166.54" y="8.28" width="4.09" height="8.99" transform="translate(-0.24 3.8) rotate(-1.29)" fill="url(#bc)"/></g><g clip-path="url(#bd)"><rect x="174.65" y="11.27" width="4.51" height="8.9" transform="translate(-0.31 3.98) rotate(-1.29)" fill="url(#be)"/></g><g clip-path="url(#bf)"><rect x="158.29" y="5.74" width="3.66" height="9.05" transform="translate(-0.19 3.6) rotate(-1.29)" fill="url(#bg)"/></g></g></g></svg>