<svg xmlns="http://www.w3.org/2000/svg" viewBox="0 0 78.57 8"><path d="M1.5,8h0A1.5,1.5,0,0,1,0,6.5v-5a1.5,1.5,0,1,1,3,0v5A1.5,1.5,0,0,1,1.5,8" fill="#4c8469"/><path d="M6.22,8h0a1.5,1.5,0,0,1-1.5-1.5v-5a1.5,1.5,0,0,1,3,0v5A1.5,1.5,0,0,1,6.22,8" fill="#4c8469"/><path d="M10.94,8h0A1.5,1.5,0,0,1,9.45,6.5v-5a1.5,1.5,0,1,1,3,0v5A1.5,1.5,0,0,1,10.94,8" fill="#4c8469"/><path d="M15.67,8h0a1.5,1.5,0,0,1-1.5-1.5v-5a1.5,1.5,0,0,1,3,0v5A1.5,1.5,0,0,1,15.67,8" fill="#4c8469"/><path d="M20.39,8h0a1.5,1.5,0,0,1-1.5-1.5v-5a1.5,1.5,0,0,1,3,0v5A1.5,1.5,0,0,1,20.39,8" fill="#4c8469"/><path d="M25.12,8h0a1.5,1.5,0,0,1-1.5-1.5v-5a1.5,1.5,0,1,1,3,0v5A1.5,1.5,0,0,1,25.12,8" fill="#4c8469"/><path d="M29.84,8h0a1.5,1.5,0,0,1-1.5-1.5v-5a1.5,1.5,0,0,1,3,0v5A1.5,1.5,0,0,1,29.84,8" fill="#4c8469"/><path d="M34.56,8h0a1.5,1.5,0,0,1-1.5-1.5v-5a1.5,1.5,0,0,1,3,0v5A1.5,1.5,0,0,1,34.56,8" fill="#4c8469"/><path d="M39.29,8h0a1.5,1.5,0,0,1-1.5-1.5v-5a1.5,1.5,0,1,1,3,0v5A1.5,1.5,0,0,1,39.29,8" fill="#4c8469"/><path d="M44,8h0a1.5,1.5,0,0,1-1.5-1.5v-5a1.5,1.5,0,0,1,3,0v5A1.5,1.5,0,0,1,44,8" fill="#4c8469"/><path d="M48.73,8h0a1.5,1.5,0,0,1-1.49-1.5v-5a1.5,1.5,0,1,1,3,0v5A1.5,1.5,0,0,1,48.73,8" fill="#4c8469"/><path d="M53.46,8h0A1.5,1.5,0,0,1,52,6.5v-5a1.5,1.5,0,1,1,3,0v5A1.5,1.5,0,0,1,53.46,8" fill="#4c8469"/><path d="M58.18,8h0a1.5,1.5,0,0,1-1.5-1.5v-5a1.5,1.5,0,0,1,3,0v5A1.5,1.5,0,0,1,58.18,8" fill="#4c8469"/><path d="M62.9,8h0a1.5,1.5,0,0,1-1.49-1.5v-5a1.5,1.5,0,1,1,3,0v5A1.5,1.5,0,0,1,62.9,8" fill="#4c8469"/><path d="M67.63,8h0a1.5,1.5,0,0,1-1.5-1.5v-5a1.5,1.5,0,1,1,3,0v5A1.5,1.5,0,0,1,67.63,8" fill="#4c8469"/><path d="M72.35,8h0a1.5,1.5,0,0,1-1.5-1.5v-5a1.5,1.5,0,0,1,3,0v5A1.5,1.5,0,0,1,72.35,8" fill="#4c8469"/><path d="M77.07,8h0a1.5,1.5,0,0,1-1.49-1.5v-5a1.5,1.5,0,1,1,3,0v5A1.5,1.5,0,0,1,77.07,8" fill="#4c8469"/></svg>
