<svg xmlns="http://www.w3.org/2000/svg" xmlns:xlink="http://www.w3.org/1999/xlink" viewBox="0 0 135.68 45.53"><defs><clipPath id="a" transform="translate(0 0)"><rect x="41.41" width="53.58" height="30.22" fill="none"/></clipPath><clipPath id="b" transform="translate(0 0)"><rect x="91.21" y="5.83" width="44.47" height="39.27" fill="none"/></clipPath><clipPath id="c" transform="translate(0 0)"><rect y="5.83" width="45.16" height="39.71" fill="none"/></clipPath></defs><title>console-buttons-bottom</title><g opacity="0.7"><g clip-path="url(#a)"><path d="M86.75,29.72a1.06,1.06,0,0,1-.31,0,78.05,78.05,0,0,0-36.47,0,2,2,0,0,1-.32,0h0a1.2,1.2,0,0,1-1.17-.88L42,5.1a1.19,1.19,0,0,1,.12-.94,1.22,1.22,0,0,1,.74-.56l.8-.19a105.31,105.31,0,0,1,49.17,0l.79.2a1.17,1.17,0,0,1,.75.57,1.23,1.23,0,0,1,.12.92L87.92,28.84a1.22,1.22,0,0,1-1.17.88" transform="translate(0 0)" fill="#233744"/><path d="M68.19,0V1A104.08,104.08,0,0,1,92.66,3.89l.79.2a.7.7,0,0,1,.43.34A.68.68,0,0,1,94,5L87.43,28.7a.7.7,0,0,1-.68.52l-.21,0a78.71,78.71,0,0,0-36.71,0,.58.58,0,0,1-.19,0A.71.71,0,0,1,49,28.7L42.43,5a.78.78,0,0,1,.07-.56.69.69,0,0,1,.43-.32l.8-.2A104.06,104.06,0,0,1,68.19,1V0m0,0A104.93,104.93,0,0,0,43.5,2.92l-.81.2a1.7,1.7,0,0,0-1.22,2.11L48,29a1.71,1.71,0,0,0,1.65,1.25,2.1,2.1,0,0,0,.43,0h0a77.7,77.7,0,0,1,36.22,0h0a2,2,0,0,0,.42,0A1.71,1.71,0,0,0,88.4,29L94.92,5.23A1.72,1.72,0,0,0,93.7,3.12l-.81-.2A105,105,0,0,0,68.19,0" transform="translate(0 0)" fill="#468c6e"/></g></g><g opacity="0.7"><g clip-path="url(#b)"><path d="M122.71,44.59A12.63,12.63,0,0,1,115,42,71.09,71.09,0,0,0,92.44,30.43a1,1,0,0,1-.69-1.22L97.83,7.08a1,1,0,0,1,1-.75.9.9,0,0,1,.28,0,96.09,96.09,0,0,1,31.29,15.92,12.31,12.31,0,0,1,4.79,9.15,12.54,12.54,0,0,1-3.93,9.77,12.38,12.38,0,0,1-8.53,3.38Z" transform="translate(0 0)" fill="#233744"/><path d="M98.81,6.83a.36.36,0,0,1,.14,0,95.54,95.54,0,0,1,31.12,15.83,11.81,11.81,0,0,1,4.6,8.79,12.06,12.06,0,0,1-3.77,9.38,11.9,11.9,0,0,1-8.19,3.24,12.07,12.07,0,0,1-7.38-2.5A71.6,71.6,0,0,0,92.58,30a.52.52,0,0,1-.35-.62L98.31,7.21a.52.52,0,0,1,.5-.38m0-1a1.53,1.53,0,0,0-1.47,1.11L91.27,29.07a1.51,1.51,0,0,0,1,1.84,70.87,70.87,0,0,1,22.43,11.47,13.16,13.16,0,0,0,8,2.71,13,13,0,0,0,8-23.2,96.69,96.69,0,0,0-31.45-16,1.52,1.52,0,0,0-.42-.06" transform="translate(0 0)" fill="#468c6e"/></g></g><g opacity="0.7"><g clip-path="url(#c)"><path d="M13.65,45A11.24,11.24,0,0,1,5.91,42L4,40.16A11.13,11.13,0,0,1,.51,31.6a11,11,0,0,1,4.11-8.14L5.21,23A96,96,0,0,1,37.35,6.36a1.09,1.09,0,0,1,.26,0,1,1,0,0,1,.9.69l6.12,22.29A.93.93,0,0,1,44,30.44a71,71,0,0,0-10.15,3.94,72.21,72.21,0,0,0-13.21,8.23,11.33,11.33,0,0,1-7,2.42Z" transform="translate(0 0)" fill="#233744"/><path d="M37.61,6.83a.44.44,0,0,1,.41.32l6.13,22.29a.43.43,0,0,1-.3.52,70.91,70.91,0,0,0-10.23,4,71.72,71.72,0,0,0-13.29,8.29A10.81,10.81,0,0,1,6.25,41.6L4.34,39.8A10.65,10.65,0,0,1,1,31.62a10.45,10.45,0,0,1,3.92-7.77l.59-.46a95.45,95.45,0,0,1,32-16.55h.12m0-1a1.34,1.34,0,0,0-.4.06A95.92,95.92,0,0,0,22.8,11.44,96.92,96.92,0,0,0,4.9,22.6l-.59.47a11.58,11.58,0,0,0-.65,17.46l1.91,1.8A11.8,11.8,0,0,0,20.94,43a71,71,0,0,1,13.11-8.18,68.58,68.58,0,0,1,10.09-3.91,1.42,1.42,0,0,0,1-1.74L39,6.88a1.45,1.45,0,0,0-1.38-1" transform="translate(0 0)" fill="#468c6e"/></g></g></svg>