<svg id="Layer_1" data-name="Layer 1" xmlns="http://www.w3.org/2000/svg" viewBox="0 0 21.06 19.14"><defs><style>.cls-1{fill:none;stroke:#4da77b;stroke-linecap:round;stroke-miterlimit:10;stroke-width:2px;}.cls-2{fill:#8a9dad;}</style></defs><title>Vector Smart Object11</title><path class="cls-1" d="M13.06,2.49c4,.78,7,3.43,7,6.58,0,4.86-3.7,6.8-9.53,6.8a12.15,12.15,0,0,1-3-.35c-1.32-.31-5.95,1.91-5.95,1.91s.7-4.82.16-5.72A5.29,5.29,0,0,1,1,9.07c0-2.34,1.67-4.4,4.2-5.64"/><path class="cls-2" d="M11,12.68,15.7,7.86a.53.53,0,0,0,.12-.58A.47.47,0,0,0,15.31,7L13,7V6.85A7,7,0,0,0,5.78,0L4.7,0a.54.54,0,0,0-.51.43V.59a.5.5,0,0,0,.31.46A5.93,5.93,0,0,1,7.92,6.27l0,.85L5.63,7.2a.56.56,0,0,0-.51.35.5.5,0,0,0,.16.58l5,4.55A.48.48,0,0,0,11,12.68Z "/></svg>
